<mxfile host="app.diagrams.net" agent="Mozilla/5.0 (Windows NT 10.0; Win64; x64) AppleWebKit/537.36 (KHTML, like Gecko) Chrome/133.0.0.0 Safari/537.36" version="26.0.15">
  <diagram name="Page-1" id="e7e014a7-5840-1c2e-5031-d8a46d1fe8dd">
    <mxGraphModel grid="1" page="1" gridSize="10" guides="1" tooltips="1" connect="1" arrows="1" fold="1" pageScale="1" pageWidth="1169" pageHeight="826" background="none" math="0" shadow="0">
      <root>
        <mxCell id="0" />
        <mxCell id="1" parent="0" />
        <mxCell id="2" value="SOC" style="swimlane;whiteSpace=wrap;fillOpacity=50;" vertex="1" parent="1">
          <mxGeometry x="-10" y="128" width="700" height="1182" as="geometry" />
        </mxCell>
        <mxCell id="DIddkETf8hI0wuYmJrWS-59" style="edgeStyle=orthogonalEdgeStyle;rounded=0;orthogonalLoop=1;jettySize=auto;html=1;entryX=0.5;entryY=0;entryDx=0;entryDy=0;" edge="1" parent="2" target="fPYJaFZdzipTab1vAfiD-42">
          <mxGeometry relative="1" as="geometry">
            <mxPoint x="234.99999999999955" y="54.999999999999886" as="sourcePoint" />
          </mxGeometry>
        </mxCell>
        <mxCell id="fPYJaFZdzipTab1vAfiD-103" style="edgeStyle=orthogonalEdgeStyle;rounded=0;orthogonalLoop=1;jettySize=auto;html=1;entryX=0;entryY=0.75;entryDx=0;entryDy=0;" edge="1" parent="2" source="fPYJaFZdzipTab1vAfiD-42" target="fPYJaFZdzipTab1vAfiD-46">
          <mxGeometry relative="1" as="geometry" />
        </mxCell>
        <mxCell id="fPYJaFZdzipTab1vAfiD-42" value="Evaluar incidencias recibidas&lt;div&gt;&lt;br&gt;&lt;/div&gt;" style="html=1;align=center;verticalAlign=top;rounded=1;absoluteArcSize=1;arcSize=10;dashed=0;whiteSpace=wrap;" vertex="1" parent="2">
          <mxGeometry x="45.5" y="112" width="140" height="40" as="geometry" />
        </mxCell>
        <mxCell id="fPYJaFZdzipTab1vAfiD-46" value="Listado de incidencias" style="html=1;align=center;verticalAlign=middle;rounded=0;absoluteArcSize=1;arcSize=10;dashed=0;whiteSpace=wrap;" vertex="1" parent="2">
          <mxGeometry x="183.25" y="237" width="114.5" height="48" as="geometry" />
        </mxCell>
        <mxCell id="fPYJaFZdzipTab1vAfiD-102" style="edgeStyle=orthogonalEdgeStyle;rounded=0;orthogonalLoop=1;jettySize=auto;html=1;entryX=0.5;entryY=0;entryDx=0;entryDy=0;" edge="1" parent="2" source="fPYJaFZdzipTab1vAfiD-73">
          <mxGeometry relative="1" as="geometry">
            <mxPoint x="253.25" y="412" as="targetPoint" />
          </mxGeometry>
        </mxCell>
        <mxCell id="fPYJaFZdzipTab1vAfiD-73" value="Determinar posibilidad de mejora&lt;div&gt;&lt;br&gt;&lt;/div&gt;" style="html=1;align=center;verticalAlign=top;rounded=1;absoluteArcSize=1;arcSize=10;dashed=0;whiteSpace=wrap;" vertex="1" parent="2">
          <mxGeometry x="183.25" y="332" width="140" height="40" as="geometry" />
        </mxCell>
        <mxCell id="FP7iwrW3Mw4f2XtUelXa-12" style="edgeStyle=orthogonalEdgeStyle;rounded=0;orthogonalLoop=1;jettySize=auto;html=1;" edge="1" parent="2" source="fPYJaFZdzipTab1vAfiD-105">
          <mxGeometry relative="1" as="geometry">
            <mxPoint x="670" y="272" as="targetPoint" />
          </mxGeometry>
        </mxCell>
        <mxCell id="fPYJaFZdzipTab1vAfiD-105" value="Listado de empleados" style="html=1;align=center;verticalAlign=middle;rounded=0;absoluteArcSize=1;arcSize=10;dashed=0;whiteSpace=wrap;" vertex="1" parent="2">
          <mxGeometry x="185.5" y="172" width="110" height="38" as="geometry" />
        </mxCell>
        <mxCell id="fPYJaFZdzipTab1vAfiD-108" value="" style="html=1;verticalAlign=bottom;labelBackgroundColor=none;endArrow=block;endFill=1;endSize=6;align=left;rounded=0;" edge="1" parent="2">
          <mxGeometry x="-1" relative="1" as="geometry">
            <mxPoint x="115.5" y="192" as="sourcePoint" />
            <mxPoint x="185.5" y="192" as="targetPoint" />
          </mxGeometry>
        </mxCell>
        <mxCell id="fPYJaFZdzipTab1vAfiD-109" style="edgeStyle=orthogonalEdgeStyle;rounded=0;orthogonalLoop=1;jettySize=auto;html=1;entryX=0.407;entryY=0.055;entryDx=0;entryDy=0;entryPerimeter=0;" edge="1" parent="2" source="fPYJaFZdzipTab1vAfiD-46" target="fPYJaFZdzipTab1vAfiD-73">
          <mxGeometry relative="1" as="geometry" />
        </mxCell>
        <mxCell id="DIddkETf8hI0wuYmJrWS-6" value="" style="html=1;points=[];perimeter=orthogonalPerimeter;fillColor=strokeColor;rotation=90;" vertex="1" parent="2">
          <mxGeometry x="250.75" y="377" width="5" height="80" as="geometry" />
        </mxCell>
        <mxCell id="DIddkETf8hI0wuYmJrWS-12" value="" style="html=1;verticalAlign=bottom;labelBackgroundColor=none;endArrow=block;endFill=1;rounded=0;" edge="1" parent="2">
          <mxGeometry width="160" relative="1" as="geometry">
            <mxPoint x="230" y="422" as="sourcePoint" />
            <mxPoint x="220" y="432" as="targetPoint" />
          </mxGeometry>
        </mxCell>
        <mxCell id="DIddkETf8hI0wuYmJrWS-13" value="" style="html=1;verticalAlign=bottom;labelBackgroundColor=none;endArrow=block;endFill=1;rounded=0;" edge="1" parent="2">
          <mxGeometry width="160" relative="1" as="geometry">
            <mxPoint x="270" y="422" as="sourcePoint" />
            <mxPoint x="280" y="432" as="targetPoint" />
          </mxGeometry>
        </mxCell>
        <mxCell id="DIddkETf8hI0wuYmJrWS-43" value="" style="html=1;points=[];perimeter=orthogonalPerimeter;fillColor=strokeColor;rotation=90;" vertex="1" parent="2">
          <mxGeometry x="250.75" y="602" width="5" height="80" as="geometry" />
        </mxCell>
        <mxCell id="DIddkETf8hI0wuYmJrWS-50" style="edgeStyle=orthogonalEdgeStyle;rounded=0;orthogonalLoop=1;jettySize=auto;html=1;entryX=0.5;entryY=0;entryDx=0;entryDy=0;" edge="1" parent="2" source="DIddkETf8hI0wuYmJrWS-46" target="DIddkETf8hI0wuYmJrWS-49">
          <mxGeometry relative="1" as="geometry" />
        </mxCell>
        <mxCell id="DIddkETf8hI0wuYmJrWS-52" style="edgeStyle=orthogonalEdgeStyle;rounded=0;orthogonalLoop=1;jettySize=auto;html=1;" edge="1" parent="2" source="DIddkETf8hI0wuYmJrWS-46">
          <mxGeometry relative="1" as="geometry">
            <mxPoint x="253.25" y="842" as="targetPoint" />
          </mxGeometry>
        </mxCell>
        <mxCell id="DIddkETf8hI0wuYmJrWS-46" value="" style="rhombus;" vertex="1" parent="2">
          <mxGeometry x="238.25" y="692" width="30" height="30" as="geometry" />
        </mxCell>
        <mxCell id="DIddkETf8hI0wuYmJrWS-47" style="edgeStyle=orthogonalEdgeStyle;rounded=0;orthogonalLoop=1;jettySize=auto;html=1;entryX=0.369;entryY=-0.01;entryDx=0;entryDy=0;entryPerimeter=0;" edge="1" parent="2" source="DIddkETf8hI0wuYmJrWS-43" target="DIddkETf8hI0wuYmJrWS-46">
          <mxGeometry relative="1" as="geometry">
            <Array as="points">
              <mxPoint x="250" y="668" />
              <mxPoint x="249" y="668" />
            </Array>
          </mxGeometry>
        </mxCell>
        <mxCell id="DIddkETf8hI0wuYmJrWS-48" value="Herramienta recibida" style="text;html=1;align=center;verticalAlign=middle;resizable=0;points=[];autosize=1;strokeColor=none;fillColor=none;" vertex="1" parent="2">
          <mxGeometry x="120.75" y="682" width="130" height="30" as="geometry" />
        </mxCell>
        <mxCell id="DIddkETf8hI0wuYmJrWS-49" value="Probar herramienta" style="html=1;align=center;verticalAlign=top;rounded=1;absoluteArcSize=1;arcSize=10;dashed=0;whiteSpace=wrap;" vertex="1" parent="2">
          <mxGeometry x="60" y="742" width="140" height="40" as="geometry" />
        </mxCell>
        <mxCell id="DIddkETf8hI0wuYmJrWS-57" value="" style="ellipse;html=1;shape=endState;fillColor=strokeColor;" vertex="1" parent="2">
          <mxGeometry x="350" y="1072" width="30" height="30" as="geometry" />
        </mxCell>
        <mxCell id="DIddkETf8hI0wuYmJrWS-60" value="" style="ellipse;fillColor=strokeColor;html=1;" vertex="1" parent="2">
          <mxGeometry x="235" y="42" width="30" height="30" as="geometry" />
        </mxCell>
        <mxCell id="DIddkETf8hI0wuYmJrWS-22" value="Hay que automatizar" style="text;html=1;align=center;verticalAlign=middle;resizable=0;points=[];autosize=1;strokeColor=none;fillColor=none;" vertex="1" parent="2">
          <mxGeometry x="70" y="481" width="130" height="30" as="geometry" />
        </mxCell>
        <mxCell id="DIddkETf8hI0wuYmJrWS-20" value="" style="rhombus;" vertex="1" parent="2">
          <mxGeometry x="40" y="457" width="30" height="30" as="geometry" />
        </mxCell>
        <mxCell id="DIddkETf8hI0wuYmJrWS-34" value="Sí" style="text;html=1;align=center;verticalAlign=middle;resizable=0;points=[];autosize=1;strokeColor=none;fillColor=none;" vertex="1" parent="2">
          <mxGeometry y="451" width="30" height="30" as="geometry" />
        </mxCell>
        <mxCell id="DIddkETf8hI0wuYmJrWS-35" value="No" style="text;html=1;align=center;verticalAlign=middle;resizable=0;points=[];autosize=1;strokeColor=none;fillColor=none;" vertex="1" parent="2">
          <mxGeometry x="50" y="372" width="40" height="30" as="geometry" />
        </mxCell>
        <mxCell id="DIddkETf8hI0wuYmJrWS-15" value="" style="rhombus;" vertex="1" parent="2">
          <mxGeometry x="470" y="457" width="30" height="30" as="geometry" />
        </mxCell>
        <mxCell id="DIddkETf8hI0wuYmJrWS-19" value="No hay que formar" style="text;html=1;align=center;verticalAlign=middle;resizable=0;points=[];autosize=1;strokeColor=none;fillColor=none;" vertex="1" parent="2">
          <mxGeometry x="370" y="382" width="120" height="30" as="geometry" />
        </mxCell>
        <mxCell id="DIddkETf8hI0wuYmJrWS-17" value="Hay que formar" style="text;html=1;align=center;verticalAlign=middle;resizable=0;points=[];autosize=1;strokeColor=none;fillColor=none;" vertex="1" parent="2">
          <mxGeometry x="500" y="442" width="110" height="30" as="geometry" />
        </mxCell>
        <mxCell id="FP7iwrW3Mw4f2XtUelXa-7" value="¿Formar a los empleados?" style="text;html=1;align=center;verticalAlign=middle;resizable=0;points=[];autosize=1;strokeColor=none;fillColor=none;" vertex="1" parent="2">
          <mxGeometry x="300" y="472" width="170" height="30" as="geometry" />
        </mxCell>
        <mxCell id="DIddkETf8hI0wuYmJrWS-53" value="No necesitamos herramienta&lt;div&gt;&lt;br&gt;&lt;/div&gt;" style="text;html=1;align=center;verticalAlign=middle;resizable=0;points=[];autosize=1;strokeColor=none;fillColor=none;" vertex="1" parent="2">
          <mxGeometry x="255.75" y="742" width="180" height="40" as="geometry" />
        </mxCell>
        <mxCell id="mAnD-Vd9WtrsSvJr29ZA-7" value="" style="html=1;align=center;verticalAlign=top;rounded=1;absoluteArcSize=1;arcSize=20;dashed=1;whiteSpace=wrap;" vertex="1" parent="2">
          <mxGeometry x="180" y="832" width="280" height="128" as="geometry" />
        </mxCell>
        <mxCell id="mAnD-Vd9WtrsSvJr29ZA-11" style="edgeStyle=orthogonalEdgeStyle;rounded=0;orthogonalLoop=1;jettySize=auto;html=1;entryX=0.5;entryY=0;entryDx=0;entryDy=0;" edge="1" parent="2" source="mAnD-Vd9WtrsSvJr29ZA-4" target="DIddkETf8hI0wuYmJrWS-57">
          <mxGeometry relative="1" as="geometry" />
        </mxCell>
        <mxCell id="mAnD-Vd9WtrsSvJr29ZA-4" value="" style="shape=collate;html=1;" vertex="1" parent="2">
          <mxGeometry x="390" y="842" width="40" height="40" as="geometry" />
        </mxCell>
        <mxCell id="mAnD-Vd9WtrsSvJr29ZA-12" value="30 días&lt;div&gt;&lt;br&gt;&lt;/div&gt;" style="text;html=1;align=center;verticalAlign=middle;whiteSpace=wrap;rounded=0;" vertex="1" parent="2">
          <mxGeometry x="330" y="832" width="60" height="30" as="geometry" />
        </mxCell>
        <mxCell id="4" value="Departamento de Desarrollo" style="swimlane;whiteSpace=wrap" vertex="1" parent="1">
          <mxGeometry x="-320" y="128" width="310" height="1182" as="geometry" />
        </mxCell>
        <mxCell id="DIddkETf8hI0wuYmJrWS-24" style="edgeStyle=orthogonalEdgeStyle;rounded=0;orthogonalLoop=1;jettySize=auto;html=1;entryX=0.5;entryY=0;entryDx=0;entryDy=0;" edge="1" parent="4" source="fPYJaFZdzipTab1vAfiD-113" target="DIddkETf8hI0wuYmJrWS-23">
          <mxGeometry relative="1" as="geometry" />
        </mxCell>
        <mxCell id="fPYJaFZdzipTab1vAfiD-113" value="análisis de automatización" style="html=1;align=center;verticalAlign=top;rounded=1;absoluteArcSize=1;arcSize=10;dashed=0;whiteSpace=wrap;" vertex="1" parent="4">
          <mxGeometry x="70" y="222" width="140" height="40" as="geometry" />
        </mxCell>
        <mxCell id="DIddkETf8hI0wuYmJrWS-28" style="edgeStyle=orthogonalEdgeStyle;rounded=0;orthogonalLoop=1;jettySize=auto;html=1;entryX=0.5;entryY=0;entryDx=0;entryDy=0;" edge="1" parent="4" source="DIddkETf8hI0wuYmJrWS-23" target="DIddkETf8hI0wuYmJrWS-26">
          <mxGeometry relative="1" as="geometry" />
        </mxCell>
        <mxCell id="DIddkETf8hI0wuYmJrWS-29" style="edgeStyle=orthogonalEdgeStyle;rounded=0;orthogonalLoop=1;jettySize=auto;html=1;entryX=0.5;entryY=0;entryDx=0;entryDy=0;" edge="1" parent="4" source="DIddkETf8hI0wuYmJrWS-23" target="DIddkETf8hI0wuYmJrWS-27">
          <mxGeometry relative="1" as="geometry" />
        </mxCell>
        <mxCell id="DIddkETf8hI0wuYmJrWS-23" value="" style="rhombus;" vertex="1" parent="4">
          <mxGeometry x="125" y="292" width="30" height="30" as="geometry" />
        </mxCell>
        <mxCell id="DIddkETf8hI0wuYmJrWS-37" style="edgeStyle=orthogonalEdgeStyle;rounded=0;orthogonalLoop=1;jettySize=auto;html=1;" edge="1" parent="4" source="DIddkETf8hI0wuYmJrWS-26">
          <mxGeometry relative="1" as="geometry">
            <mxPoint x="139.99999999999977" y="602" as="targetPoint" />
          </mxGeometry>
        </mxCell>
        <mxCell id="DIddkETf8hI0wuYmJrWS-26" value="&lt;div&gt;&lt;span style=&quot;background-color: transparent; color: light-dark(rgb(0, 0, 0), rgb(255, 255, 255));&quot;&gt;Desarrollar herramienta&lt;/span&gt;&lt;/div&gt;" style="html=1;align=center;verticalAlign=top;rounded=1;absoluteArcSize=1;arcSize=10;dashed=0;whiteSpace=wrap;" vertex="1" parent="4">
          <mxGeometry x="92.5" y="482" width="95" height="58" as="geometry" />
        </mxCell>
        <mxCell id="DIddkETf8hI0wuYmJrWS-36" style="edgeStyle=orthogonalEdgeStyle;rounded=0;orthogonalLoop=1;jettySize=auto;html=1;entryX=1;entryY=0.5;entryDx=0;entryDy=0;" edge="1" parent="4" source="DIddkETf8hI0wuYmJrWS-27" target="DIddkETf8hI0wuYmJrWS-26">
          <mxGeometry relative="1" as="geometry" />
        </mxCell>
        <mxCell id="DIddkETf8hI0wuYmJrWS-27" value="&lt;div&gt;Consultar Gerente de operaciones&lt;/div&gt;" style="html=1;align=center;verticalAlign=top;rounded=1;absoluteArcSize=1;arcSize=10;dashed=0;whiteSpace=wrap;" vertex="1" parent="4">
          <mxGeometry x="160" y="342" width="100" height="58" as="geometry" />
        </mxCell>
        <mxCell id="DIddkETf8hI0wuYmJrWS-32" value="Presupuesto &amp;gt;=1000" style="text;html=1;align=center;verticalAlign=middle;resizable=0;points=[];autosize=1;strokeColor=none;fillColor=none;" vertex="1" parent="4">
          <mxGeometry x="10" y="356" width="130" height="30" as="geometry" />
        </mxCell>
        <mxCell id="DIddkETf8hI0wuYmJrWS-33" value="Presupuesto &amp;lt; 1000" style="text;html=1;align=center;verticalAlign=middle;resizable=0;points=[];autosize=1;strokeColor=none;fillColor=none;" vertex="1" parent="4">
          <mxGeometry x="145" y="285" width="130" height="30" as="geometry" />
        </mxCell>
        <mxCell id="DIddkETf8hI0wuYmJrWS-38" value="Herramienta desarrollada" style="html=1;align=center;verticalAlign=middle;rounded=0;absoluteArcSize=1;arcSize=10;dashed=0;whiteSpace=wrap;" vertex="1" parent="4">
          <mxGeometry x="70" y="608" width="140" height="60" as="geometry" />
        </mxCell>
        <mxCell id="DIddkETf8hI0wuYmJrWS-41" value="" style="shape=sumEllipse;perimeter=ellipsePerimeter;html=1;backgroundOutline=1;" vertex="1" parent="4">
          <mxGeometry x="125" y="742" width="30" height="30" as="geometry" />
        </mxCell>
        <mxCell id="3" value="Recursos Humanos" style="swimlane;whiteSpace=wrap" vertex="1" parent="1">
          <mxGeometry x="690" y="128" width="300" height="1182" as="geometry" />
        </mxCell>
        <mxCell id="fPYJaFZdzipTab1vAfiD-88" style="edgeStyle=orthogonalEdgeStyle;rounded=0;orthogonalLoop=1;jettySize=auto;html=1;" edge="1" parent="3" source="fPYJaFZdzipTab1vAfiD-86">
          <mxGeometry relative="1" as="geometry">
            <mxPoint x="137.5" y="342" as="targetPoint" />
          </mxGeometry>
        </mxCell>
        <mxCell id="fPYJaFZdzipTab1vAfiD-86" value="Listado de empleados actualizado" style="html=1;align=center;verticalAlign=middle;rounded=0;absoluteArcSize=1;arcSize=10;dashed=0;whiteSpace=wrap;" vertex="1" parent="3">
          <mxGeometry x="77.5" y="252" width="120" height="48" as="geometry" />
        </mxCell>
        <mxCell id="fPYJaFZdzipTab1vAfiD-90" style="edgeStyle=orthogonalEdgeStyle;rounded=0;orthogonalLoop=1;jettySize=auto;html=1;" edge="1" parent="3" source="fPYJaFZdzipTab1vAfiD-89">
          <mxGeometry relative="1" as="geometry">
            <mxPoint x="140.00000000000045" y="442" as="targetPoint" />
          </mxGeometry>
        </mxCell>
        <mxCell id="fPYJaFZdzipTab1vAfiD-89" value="Recabar datos de los empleados&lt;div&gt;&lt;br&gt;&lt;/div&gt;" style="html=1;align=center;verticalAlign=top;rounded=1;absoluteArcSize=1;arcSize=10;dashed=0;whiteSpace=wrap;" vertex="1" parent="3">
          <mxGeometry x="82.5" y="342" width="115" height="48" as="geometry" />
        </mxCell>
        <mxCell id="fPYJaFZdzipTab1vAfiD-93" style="edgeStyle=orthogonalEdgeStyle;rounded=0;orthogonalLoop=1;jettySize=auto;html=1;" edge="1" parent="3" source="fPYJaFZdzipTab1vAfiD-92">
          <mxGeometry relative="1" as="geometry">
            <mxPoint x="140" y="542" as="targetPoint" />
          </mxGeometry>
        </mxCell>
        <mxCell id="fPYJaFZdzipTab1vAfiD-92" value="Consultar catálogo de formación" style="html=1;align=center;verticalAlign=top;rounded=1;absoluteArcSize=1;arcSize=10;dashed=0;whiteSpace=wrap;" vertex="1" parent="3">
          <mxGeometry x="70" y="442" width="140" height="40" as="geometry" />
        </mxCell>
        <mxCell id="fPYJaFZdzipTab1vAfiD-94" value="Contratar cursos acordes" style="html=1;align=center;verticalAlign=top;rounded=1;absoluteArcSize=1;arcSize=10;dashed=0;whiteSpace=wrap;" vertex="1" parent="3">
          <mxGeometry x="77.5" y="542" width="140" height="40" as="geometry" />
        </mxCell>
        <mxCell id="fPYJaFZdzipTab1vAfiD-95" value="" style="shape=sumEllipse;perimeter=ellipsePerimeter;html=1;backgroundOutline=1;" vertex="1" parent="3">
          <mxGeometry x="132.5" y="722" width="30" height="30" as="geometry" />
        </mxCell>
        <mxCell id="fPYJaFZdzipTab1vAfiD-96" value="Mandar listado empleados&lt;div&gt;&lt;br&gt;&lt;/div&gt;" style="html=1;align=center;verticalAlign=top;rounded=1;absoluteArcSize=1;arcSize=10;dashed=0;whiteSpace=wrap;" vertex="1" parent="3">
          <mxGeometry x="82.5" y="622" width="145" height="48" as="geometry" />
        </mxCell>
        <mxCell id="fPYJaFZdzipTab1vAfiD-98" style="edgeStyle=orthogonalEdgeStyle;rounded=0;orthogonalLoop=1;jettySize=auto;html=1;entryX=0.444;entryY=0.059;entryDx=0;entryDy=0;entryPerimeter=0;" edge="1" parent="3" source="fPYJaFZdzipTab1vAfiD-94" target="fPYJaFZdzipTab1vAfiD-96">
          <mxGeometry relative="1" as="geometry" />
        </mxCell>
        <mxCell id="DIddkETf8hI0wuYmJrWS-8" style="edgeStyle=orthogonalEdgeStyle;rounded=0;orthogonalLoop=1;jettySize=auto;html=1;entryX=1;entryY=0.5;entryDx=0;entryDy=0;" edge="1" parent="1" target="DIddkETf8hI0wuYmJrWS-20">
          <mxGeometry relative="1" as="geometry">
            <mxPoint x="210" y="560" as="sourcePoint" />
          </mxGeometry>
        </mxCell>
        <mxCell id="DIddkETf8hI0wuYmJrWS-9" style="edgeStyle=orthogonalEdgeStyle;rounded=0;orthogonalLoop=1;jettySize=auto;html=1;entryX=0;entryY=0.5;entryDx=0;entryDy=0;" edge="1" parent="1" target="DIddkETf8hI0wuYmJrWS-15">
          <mxGeometry relative="1" as="geometry">
            <mxPoint x="270" y="560" as="sourcePoint" />
          </mxGeometry>
        </mxCell>
        <mxCell id="DIddkETf8hI0wuYmJrWS-44" style="edgeStyle=orthogonalEdgeStyle;rounded=0;orthogonalLoop=1;jettySize=auto;html=1;entryX=0.167;entryY=0.907;entryDx=0;entryDy=0;entryPerimeter=0;" edge="1" parent="1" source="DIddkETf8hI0wuYmJrWS-38" target="DIddkETf8hI0wuYmJrWS-43">
          <mxGeometry relative="1" as="geometry">
            <mxPoint x="200" y="740" as="targetPoint" />
          </mxGeometry>
        </mxCell>
        <mxCell id="DIddkETf8hI0wuYmJrWS-45" style="edgeStyle=orthogonalEdgeStyle;rounded=0;orthogonalLoop=1;jettySize=auto;html=1;entryX=0.04;entryY=0.038;entryDx=0;entryDy=0;entryPerimeter=0;" edge="1" parent="1" source="fPYJaFZdzipTab1vAfiD-96" target="DIddkETf8hI0wuYmJrWS-43">
          <mxGeometry relative="1" as="geometry">
            <mxPoint x="280" y="760" as="targetPoint" />
            <Array as="points">
              <mxPoint x="527" y="774" />
              <mxPoint x="527" y="750" />
              <mxPoint x="280" y="750" />
            </Array>
          </mxGeometry>
        </mxCell>
        <mxCell id="DIddkETf8hI0wuYmJrWS-55" value="Analizar comportamiento" style="html=1;align=center;verticalAlign=top;rounded=1;absoluteArcSize=1;arcSize=10;dashed=0;whiteSpace=wrap;" vertex="1" parent="1">
          <mxGeometry x="170" y="970" width="140" height="40" as="geometry" />
        </mxCell>
        <mxCell id="DIddkETf8hI0wuYmJrWS-58" style="edgeStyle=orthogonalEdgeStyle;rounded=0;orthogonalLoop=1;jettySize=auto;html=1;entryX=0;entryY=0.5;entryDx=0;entryDy=0;" edge="1" parent="1" source="DIddkETf8hI0wuYmJrWS-49" target="DIddkETf8hI0wuYmJrWS-55">
          <mxGeometry relative="1" as="geometry" />
        </mxCell>
        <mxCell id="DIddkETf8hI0wuYmJrWS-21" style="edgeStyle=orthogonalEdgeStyle;rounded=0;orthogonalLoop=1;jettySize=auto;html=1;entryX=0.5;entryY=0;entryDx=0;entryDy=0;" edge="1" parent="1" source="DIddkETf8hI0wuYmJrWS-20" target="fPYJaFZdzipTab1vAfiD-113">
          <mxGeometry relative="1" as="geometry" />
        </mxCell>
        <mxCell id="DIddkETf8hI0wuYmJrWS-42" style="edgeStyle=orthogonalEdgeStyle;rounded=0;orthogonalLoop=1;jettySize=auto;html=1;entryX=0;entryY=0.5;entryDx=0;entryDy=0;" edge="1" parent="1" source="DIddkETf8hI0wuYmJrWS-20" target="DIddkETf8hI0wuYmJrWS-41">
          <mxGeometry relative="1" as="geometry">
            <Array as="points">
              <mxPoint x="-310" y="285" />
              <mxPoint x="-310" y="885" />
            </Array>
          </mxGeometry>
        </mxCell>
        <mxCell id="DIddkETf8hI0wuYmJrWS-18" style="edgeStyle=orthogonalEdgeStyle;rounded=0;orthogonalLoop=1;jettySize=auto;html=1;entryX=1;entryY=0.5;entryDx=0;entryDy=0;" edge="1" parent="1" source="DIddkETf8hI0wuYmJrWS-15" target="fPYJaFZdzipTab1vAfiD-95">
          <mxGeometry relative="1" as="geometry">
            <Array as="points">
              <mxPoint x="475" y="350" />
              <mxPoint x="950" y="350" />
              <mxPoint x="950" y="865" />
            </Array>
          </mxGeometry>
        </mxCell>
        <mxCell id="FP7iwrW3Mw4f2XtUelXa-6" style="edgeStyle=orthogonalEdgeStyle;rounded=0;orthogonalLoop=1;jettySize=auto;html=1;entryX=0;entryY=0.5;entryDx=0;entryDy=0;" edge="1" parent="1" source="DIddkETf8hI0wuYmJrWS-15" target="fPYJaFZdzipTab1vAfiD-86">
          <mxGeometry relative="1" as="geometry" />
        </mxCell>
      </root>
    </mxGraphModel>
  </diagram>
</mxfile>
